<?xml version="1.0" encoding="UTF-8" standalone="no"?>
<!DOCTYPE svg PUBLIC "-//W3C//DTD SVG 20010904//EN"
              "http://www.w3.org/TR/2001/REC-SVG-20010904/DTD/svg10.dtd">

<svg xmlns="http://www.w3.org/2000/svg"
     width="512px" height="512px"
     viewBox="0 0 650 600">
  <path id="yacht"  transform='rotate(-10) skewX(-10) translate(100 50)'
        fill="#15397A" stroke="#15397A" stroke-width="1"
        d="M 312.29,32.00
           C 312.29,32.00 338.42,95.00 338.42,95.00
             366.31,168.91 389.44,244.31 408.37,321.00
             414.38,345.34 419.90,370.20 423.57,395.00
             423.57,395.00 425.91,414.00 425.91,414.00
             426.05,416.15 426.20,419.75 424.98,421.58
             423.33,424.06 418.75,424.94 416.00,425.63
             416.00,425.63 391.00,429.42 391.00,429.42
             391.00,429.42 368.00,431.09 368.00,431.09
             368.00,431.09 353.00,432.00 353.00,432.00
             353.00,432.00 338.00,433.00 338.00,433.00
             338.00,433.00 319.00,433.00 319.00,433.00
             319.00,433.00 304.00,434.00 304.00,434.00
             304.00,434.00 280.00,433.00 280.00,433.00
             280.22,422.96 289.70,392.65 292.85,381.00
             300.69,352.01 307.51,322.48 313.20,293.00
             318.07,267.75 321.69,242.57 324.17,217.00
             324.17,217.00 326.04,197.00 326.04,197.00
             326.04,197.00 326.04,186.00 326.04,186.00
             326.04,186.00 327.00,176.00 327.00,176.00
             327.00,176.00 327.00,168.00 327.00,168.00
             327.00,168.00 326.00,149.00 326.00,149.00
             325.82,133.68 319.22,98.08 316.00,82.00
             316.00,82.00 300.00,13.00 300.00,13.00
             300.00,13.00 296.09,95.00 296.09,95.00
             291.30,164.93 281.50,234.38 273.15,304.00
             273.15,304.00 263.00,380.00 263.00,380.00
             263.00,380.00 259.87,402.00 259.87,402.00
             259.58,404.08 259.00,410.09 257.98,411.57
             256.15,414.20 248.17,414.70 245.00,414.91
             245.00,414.91 209.00,417.00 209.00,417.00
             209.00,417.00 194.00,418.00 194.00,418.00
             194.00,418.00 179.00,418.96 179.00,418.96
             179.00,418.96 167.00,418.96 167.00,418.96
             167.00,418.96 156.00,420.00 156.00,420.00
             157.86,413.62 164.10,404.14 167.58,398.00
             167.58,398.00 183.75,367.00 183.75,367.00
             201.59,331.33 217.93,294.60 231.31,257.00
             250.84,202.11 265.42,151.42 279.53,95.00
             279.53,95.00 292.00,40.00 292.00,40.00
             292.00,40.00 299.00,7.00 299.00,7.00
             304.02,12.03 309.11,25.14 312.29,32.00 Z
           M 142.00,464.00
           C 142.00,464.00 159.00,463.00 159.00,463.00
             159.00,463.00 180.00,463.00 180.00,463.00
             180.00,463.00 196.00,462.00 196.00,462.00
             196.00,462.00 237.00,461.00 237.00,461.00
             237.00,461.00 249.00,460.04 249.00,460.04
             249.00,460.04 263.00,460.04 263.00,460.04
             263.00,460.04 279.00,459.00 279.00,459.00
             279.00,459.00 308.00,458.00 308.00,458.00
             308.00,458.00 322.00,457.00 322.00,457.00
             322.00,457.00 356.00,455.09 356.00,455.09
             356.00,455.09 392.00,452.83 392.00,452.83
             392.00,452.83 424.00,449.00 424.00,449.00
             421.04,454.60 416.73,455.14 412.00,459.21
             409.64,461.24 406.48,465.14 403.83,466.26
             401.41,467.28 396.74,466.95 394.00,467.01
             394.00,467.01 381.00,468.00 381.00,468.00
             381.00,468.00 360.00,469.00 360.00,469.00
             360.00,469.00 329.00,470.00 329.00,470.00
             329.00,470.00 314.00,471.00 314.00,471.00
             314.00,471.00 278.00,472.00 278.00,472.00
             278.00,472.00 261.00,473.00 261.00,473.00
             261.00,473.00 213.00,474.00 213.00,474.00
             213.00,474.00 194.00,475.00 194.00,475.00
             194.00,475.00 175.00,475.00 175.00,475.00
             175.00,475.00 159.00,476.00 159.00,476.00
             159.00,476.00 134.00,476.00 134.00,476.00
             134.00,476.00 121.00,477.00 121.00,477.00
             121.00,477.00 102.00,477.00 102.00,477.00
             98.94,477.00 92.00,477.67 89.85,475.40
             87.61,473.03 88.00,467.13 88.00,464.00
             88.00,464.00 142.00,464.00 142.00,464.00 Z
           M 124.00,481.00
           C 124.00,481.00 140.00,480.00 140.00,480.00
             140.00,480.00 163.00,480.00 163.00,480.00
             163.00,480.00 178.00,479.00 178.00,479.00
             178.00,479.00 200.00,479.00 200.00,479.00
             200.00,479.00 216.00,478.00 216.00,478.00
             216.00,478.00 232.00,478.00 232.00,478.00
             232.00,478.00 248.00,477.00 248.00,477.00
             248.00,477.00 291.00,476.00 291.00,476.00
             291.00,476.00 308.00,475.00 308.00,475.00
             308.00,475.00 343.00,474.00 343.00,474.00
             343.00,474.00 357.00,473.00 357.00,473.00
             357.00,473.00 382.00,472.00 382.00,472.00
             382.00,472.00 399.00,471.00 399.00,471.00
             396.40,476.51 393.14,478.65 389.09,483.00
             389.09,483.00 373.04,500.00 373.04,500.00
             371.16,501.97 368.14,505.78 365.91,506.98
             363.64,508.20 360.53,507.99 358.00,508.00
             358.00,508.00 171.00,508.00 171.00,508.00
             171.00,508.00 118.00,508.00 118.00,508.00
             115.94,508.00 112.39,508.26 110.70,507.01
             108.88,505.66 108.46,502.68 105.61,499.00
             100.81,492.80 94.73,489.18 93.00,481.00
             93.00,481.00 124.00,481.00 124.00,481.00 Z" 
             >

            <animate 
                id="a1"
                attributeType="CSS" 
                attributeName="opacity" 
                values="1;0.2;1" 
                dur="5s" 
                repeatCount="indefinite"
                begin="0s" />
    </path>


</svg>
